<?xml version="1.0" encoding="UTF-8"?>
<svg width="522px" height="522px" viewBox="0 0 522 522" version="1.1" xmlns="http://www.w3.org/2000/svg" xmlns:xlink="http://www.w3.org/1999/xlink">
    <title>20200709_Logo_weiss_quad_RGB_with_BG</title>
    <g id="Page-1" stroke="none" stroke-width="1" fill="none" fill-rule="evenodd">
        <g id="20200709_Logo_weiss_quad_RGB_with_BG">
            <rect id="Rectangle" fill="#424242" fill-rule="nonzero" x="0" y="0" width="522" height="522" rx="8"></rect>
            <g id="20200709_Logo_weiss_quad_RGB" transform="translate(16, 47)">
                <rect id="Rectangle" x="0" y="0" width="490" height="428.32"></rect>
                <rect id="Rectangle" fill="#FFFFFF" fill-rule="nonzero" x="16.581" y="378.197" width="456.744" height="50.121"></rect>
                <g id="Group" transform="translate(16.581, 0.61)" fill="#FFFFFF" fill-rule="nonzero">
                    <polygon id="Path" points="103.391 0.343 47.651 0.343 7.10542736e-15 125.097 40.599 125.097"></polygon>
                    <polygon id="Path" points="166.525 106.711 116.121 106.711 116.121 192.286 37.329 192.286 37.329 241.432 116.121 241.432 116.121 327.005 166.525 327.005 166.525 241.432 245.833 241.432 245.833 192.286 166.525 192.286"></polygon>
                    <path d="M457.259,92.791 C456.917,66.158 448.142,43.989 431.113,26.633 C414.425,9.279 392.061,0.342 365.053,0 C341.14,0.342 320.496,9.279 303.638,26.633 C287.292,44.163 278.348,67.016 277.316,94.166 L277.316,95.885 L324.797,95.885 L324.969,94.511 C326.517,79.905 331.334,68.392 339.418,60.657 C347.676,52.583 357.482,48.287 368.838,48.287 C382.256,48.63 392.404,52.925 399.629,61.517 C406.512,70.11 410.125,80.248 410.125,91.933 C410.125,95.885 409.609,100.524 408.404,106.023 C406.855,110.835 403.758,116.506 398.77,123.036 L276.8,279.578 L276.453,279.922 L276.453,327.467 L456.744,327.467 L456.744,277.344 L340.795,277.344 L438.679,150.187 C450.896,134.032 457.259,114.614 457.259,92.791" id="Path"></path>
                </g>
            </g>
        </g>
    </g>
</svg>